<?xml version="1.0" encoding="UTF-8"?>
<svg width="176px" height="29px" viewBox="0 0 176 29" version="1.1" xmlns="http://www.w3.org/2000/svg" xmlns:xlink="http://www.w3.org/1999/xlink">
    <!-- Generator: Sketch 49.3 (51167) - http://www.bohemiancoding.com/sketch -->
    <title>Copia de logo-continuum-alt-clearbg</title>
    <desc>Created with Sketch.</desc>
    <defs>
        <path d="M49.1024894,0.026984127 L49.1024894,2.02111111 L49.1024894,2.04715079 L49.1024894,12.0888889 C49.1024894,13.5664048 49.476472,14.6991984 50.2260503,15.4930714 C50.9745532,16.2847857 52.0525426,16.682127 53.4596151,16.682127 L56.9403956,16.682127 L56.9403956,13.7610952 L55.3750996,13.7610952 C54.4638027,13.7610952 53.8267418,13.5496746 53.4596151,13.1289921 C53.0939671,12.7072302 52.9120841,11.9530238 52.9120841,10.8659683 L52.9120841,5.53484921 L56.9403956,5.53484921 L56.9403956,2.02111111 L52.9120841,2.02111111 L52.9120841,0.026984127 L49.1024894,0.026984127 Z M16.441119,3.84321429 C15.0496402,5.2229127 14.3542369,7.06498413 14.3542369,9.36497619 C14.3542369,11.6561984 15.0496402,13.4904444 16.441119,14.8666349 C17.833001,16.2433651 19.6978056,16.9328095 22.0340542,16.9328095 C24.3711093,16.9328095 26.2282515,16.245254 27.6058839,14.8739206 C28.9853985,13.5017778 29.6743491,11.6655079 29.6743491,9.36497619 C29.6743491,7.06498413 28.9802901,5.2229127 27.5931132,3.84321429 C26.2072805,2.46149206 24.3540368,1.77110317 22.0340542,1.77110317 C19.6978056,1.77110317 17.833001,2.46149206 16.441119,3.84321429 Z M19.3183114,12.620746 C18.6768143,11.8402302 18.3563346,10.7534444 18.3563346,9.35769048 C18.3563346,7.97124603 18.6786963,6.88904762 19.3258395,6.11069048 C19.9725793,5.33084921 20.8657282,4.94214286 22.0073027,4.94214286 C23.1573462,4.94214286 24.0564101,5.32896032 24.7031499,6.10461905 C25.350293,6.87784921 25.6725203,7.96396032 25.6725203,9.35769048 C25.6725203,10.7534444 25.3478733,11.8402302 24.6968317,12.620746 C24.0455213,13.399373 23.1503559,13.7882143 22.0073027,13.7882143 C20.8577969,13.7882143 19.9598085,13.399373 19.3183114,12.620746 Z M118.285102,2.02111111 L118.285102,16.682127 L122.121582,16.682127 L122.121582,5.24733333 L126.589343,5.24733333 L126.589343,16.682127 L130.480537,16.682127 L130.480537,5.24733333 L132.620922,5.24733333 C133.620808,5.24733333 134.280318,5.41935714 134.603083,5.76407937 C134.92316,6.1082619 135.084878,6.81888889 135.084878,7.89623016 L135.084878,16.682127 L138.92109,16.682127 L138.92109,7.39311111 C138.92109,5.49842063 138.453813,4.12911111 137.516437,3.28572222 C136.580674,2.4427381 135.052212,2.02111111 132.930513,2.02111111 L118.285102,2.02111111 Z M111.052397,2.02111111 L111.052397,13.4545556 L107.991305,13.4545556 C106.992225,13.4545556 106.326128,13.2914365 105.991936,12.9654683 C105.657207,12.6384206 105.492397,11.9855397 105.492397,11.0079048 L105.492397,2.02111111 L101.681457,2.02111111 L101.681457,11.3197063 C101.681457,13.193754 102.153842,14.5548333 103.094983,15.4065873 C104.037736,16.2557778 105.567005,16.682127 107.684537,16.682127 L114.863067,16.682127 L114.863067,2.02111111 L111.052397,2.02111111 Z M94.5599255,2.02111111 L94.5599255,13.4545556 L91.4974894,13.4545556 C90.4997544,13.4545556 89.8327157,13.2914365 89.4985242,12.9654683 C89.1632573,12.6384206 88.9975058,11.9855397 88.9975058,11.0079048 L88.9975058,2.02111111 L85.1889865,2.02111111 L85.1889865,11.3197063 C85.1889865,13.193754 85.6593549,14.5548333 86.6011673,15.4065873 C87.5417698,16.2557778 89.0737273,16.682127 91.1900493,16.682127 L98.3687137,16.682127 L98.3687137,2.02111111 L94.5599255,2.02111111 Z M68.8676441,2.02111111 L68.8676441,16.682127 L72.6783143,16.682127 L72.6783143,5.24733333 L75.7472031,5.24733333 C76.7578433,5.24733333 77.4291838,5.41085714 77.7637785,5.73669048 C78.0999865,6.06279365 78.2681576,6.77288095 78.2681576,7.86884127 L78.2681576,16.682127 L82.075736,16.682127 L82.075736,7.39311111 C82.075736,5.47062698 81.6141054,4.09551587 80.6846605,3.26480952 C79.7579043,2.43612698 78.2090087,2.02111111 76.0421412,2.02111111 L68.8676441,2.02111111 Z M60.9642708,16.682127 L64.9648897,16.682127 L64.9648897,2.02111111 L60.9642708,2.02111111 L60.9642708,16.682127 Z M32.0001122,2.02111111 L32.0001122,16.682127 L35.8086315,16.682127 L35.8086315,5.24733333 L38.8796712,5.24733333 C39.8889671,5.24733333 40.562324,5.41085714 40.8973221,5.73669048 C41.2324545,6.06279365 41.3994159,6.77288095 41.3994159,7.86884127 L41.3994159,16.682127 L45.2092795,16.682127 L45.2092795,7.39311111 C45.2092795,5.47062698 44.7450948,4.09551587 43.8168598,3.26480952 C42.8899691,2.43612698 41.3425522,2.02111111 39.1746093,2.02111111 L32.0001122,2.02111111 Z M7.62080271,2.02111111 C6.33753965,2.02111111 5.26869149,2.159 4.41761896,2.4342381 C3.56668085,2.7115 2.82489942,3.1580873 2.19133366,3.77319048 C1.51394391,4.43443651 0.987518375,5.25637302 0.613132495,6.23926984 C0.239015474,7.22284127 0.0509487427,8.28021429 0.0509487427,9.41206349 C0.0509487427,10.4895397 0.241031915,11.5125079 0.619853965,12.4769206 C0.999079304,13.4407937 1.52254739,14.2585476 2.19133366,14.9295079 C2.81548936,15.5446111 3.54772631,15.9917381 4.39127079,16.2669762 C5.23373985,16.5430238 6.30971277,16.682127 7.62080271,16.682127 L12.7939149,16.682127 L12.7939149,13.5373968 L8.74342263,13.5373968 C7.77203578,13.5373968 7.09733462,13.5017778 6.71905029,13.4286508 C6.34063153,13.3572778 6.00872534,13.2342302 5.72239072,13.0622063 C5.14420986,12.7015635 4.71605222,12.2273175 4.43912766,11.638254 C4.16408511,11.0510794 4.02562282,10.3090159 4.02562282,9.41206349 C4.02562282,7.85669841 4.36290619,6.76438095 5.04029594,6.13470635 C5.7182234,5.50678571 6.95188201,5.19174603 8.74342263,5.19174603 L12.7939149,5.19174603 L12.7939149,2.02111111 L7.62080271,2.02111111 Z" id="path-1"></path>
        <path d="M5.6016,3.32380465 C4.82653333,3.91257209 4.36426667,4.8711907 4.36426667,5.91910233 C4.36426667,6.40495349 4.4724,6.8655814 4.66426667,7.27886512 L4.65586667,7.28156279 C5.0992,8.2658093 5.61093333,9.21147907 6.18866667,10.1114233 L6.19066667,10.1257209 C6.49906667,10.7363395 6.33226667,11.6009442 5.6456,11.7909953 C3.74026667,12.3167721 2.02826667,15.263307 1.9488,17.3405163 C1.832,20.3397907 1.82506667,21.0268884 0.190533333,22.7792977 C0.1044,22.865893 0.0509333333,22.9827023 0.0509333333,23.1144837 C0.0509333333,23.3756186 0.262533333,23.5876558 0.524933333,23.5876558 C0.616,23.5876558 0.702266667,23.5614884 0.774666667,23.5163023 C2.29226667,22.7717442 3.38613333,22.2193953 3.87386667,20.0766326 C4.35986667,17.9338698 5.43146667,16.0812419 7.75746667,15.9804837 C8.91146667,15.9308465 9.19066667,16.9733628 9.12013333,17.6512884 C8.8968,19.8164419 8.5016,21.1134837 6.20746667,22.6374 C2.73173333,24.9603674 2.3964,26.269414 1.93173333,28.2866 C1.87293333,28.5420698 1.92666667,28.8048233 2.16453333,28.9138093 C2.37013333,29.0076884 2.606,28.9429442 2.73586667,28.7719116 C4.57066667,25.7784372 5.94146667,26.3773209 8.5192,25.5763814 C10.6154667,24.9258372 12.9472,23.6281209 14.5298667,19.8493535 C14.6644,19.5534186 15.106,18.900986 15.698,18.9641116 C16.4014667,19.0381628 16.6452,19.7836651 16.5870667,20.197893 C16.2726667,23.5640512 13.3990667,26.6460093 10.3017333,27.6817814 L10.2964,27.6817814 C10.1089333,27.7447721 9.97266667,27.9221442 9.97266667,28.1314837 C9.97266667,28.3924837 10.1645333,28.6019581 10.4254667,28.6019581 C14.9912,28.9741023 19.4232,25.3399302 19.8962667,20.802307 C19.9934667,20.1249209 20.6206667,19.6551209 21.2969333,19.7526419 L21.296,19.7553395 C22.6022667,20.1161535 24.2758667,20.1516279 24.2758667,20.1516279 C25.7254667,20.1516279 26.9522667,19.1923349 27.3548,17.8730372 L27.3478667,17.8956977 C27.7668,16.583414 27.9933333,15.1852093 27.9933333,13.7345349 C27.9933333,6.2101814 21.8998667,0.1102 14.3822667,0.1102 C11.0357333,0.1102 7.97213333,1.31889302 5.6016,3.32380465 Z" id="path-3"></path>
    </defs>
    <g id="Page-1" stroke="none" stroke-width="1" fill="none" fill-rule="evenodd">
        <g id="Desktop-HD" transform="translate(-4.000000, -6.000000)">
            <g id="Copia-de-logo-continuum-alt-clearbg" transform="translate(4.000000, 6.000000)">
                <g id="Group-3" transform="translate(37.000000, 6.000000)">
                    <mask id="mask-2" fill="white">
                        <use xlink:href="#path-1"></use>
                    </mask>
                    <g id="Clip-2"></g>
                    <polygon id="Fill-1" fill="#757684" mask="url(#mask-2)" points="-0.621198259 17.6074127 139.593237 17.6074127 139.593237 -0.647484127 -0.621198259 -0.647484127"></polygon>
                </g>
                <g id="Group-6">
                    <mask id="mask-4" fill="white">
                        <use xlink:href="#path-3"></use>
                    </mask>
                    <g id="Clip-5"></g>
                    <polygon id="Fill-4" fill="#65BB45" mask="url(#mask-4)" points="-0.615733333 29.6313907 28.66 29.6313907 28.66 -0.564218605 -0.615733333 -0.564218605"></polygon>
                </g>
            </g>
        </g>
    </g>
</svg>